<?xml version="1.0" standalone="no"?>
<!DOCTYPE svg PUBLIC "-//W3C//DTD SVG 20010904//EN"
 "http://www.w3.org/TR/2001/REC-SVG-20010904/DTD/svg10.dtd">
<svg version="1.0" xmlns="http://www.w3.org/2000/svg"
 width="1024.000000pt" height="1024.000000pt" viewBox="0 0 1024.000000 1024.000000"
 preserveAspectRatio="xMidYMid meet">

<g transform="translate(0.000000,1024.000000) scale(0.100000,-0.100000)"
fill="#000000" stroke="none">
<path d="M5061 9309 c-10 -17 -25 -51 -31 -76 l-13 -45 -59 7 c-47 6 -58 4
-58 -8 0 -10 19 -18 60 -26 51 -10 62 -16 76 -42 8 -17 15 -47 14 -67 -3 -64
-4 -63 53 -60 l52 3 -3 46 c-2 26 3 62 12 83 14 35 17 36 65 36 43 0 51 3 51
18 0 16 -6 18 -50 12 -57 -7 -55 -8 -65 40 -4 19 -14 49 -23 65 -27 54 -54 59
-81 14z m99 -129 c0 -5 -5 -10 -11 -10 -5 0 -7 5 -4 10 3 6 8 10 11 10 2 0 4
-4 4 -10z"/>
<path d="M6170 9238 c-55 -30 -105 -100 -114 -161 -33 -216 248 -326 381 -150
52 70 54 159 4 240 -52 85 -181 118 -271 71z m182 -97 c-1 -7 2 -10 7 -7 15
10 33 -22 26 -46 -5 -18 -4 -20 4 -8 8 11 11 4 11 -32 0 -39 -5 -52 -31 -77
-17 -17 -42 -34 -55 -37 -32 -8 -94 2 -108 17 -8 9 -6 10 7 6 12 -4 16 -3 11
4 -3 6 -15 9 -25 6 -11 -3 -17 -2 -14 3 2 4 -3 22 -12 41 -21 43 -21 84 2 109
13 15 21 17 31 9 7 -6 19 -7 26 -3 10 5 11 4 1 -7 -7 -7 -13 -22 -12 -33 l0
-21 10 21 c6 11 22 28 37 37 l27 16 -30 1 c-25 1 -27 3 -10 10 31 12 100 6 97
-9z"/>
<path d="M6278 9078 c-5 -15 20 -68 32 -68 5 0 14 9 20 21 9 16 8 25 -6 40
-19 22 -40 25 -46 7z"/>
<path d="M4187 9236 c-92 -33 -147 -112 -147 -211 0 -68 23 -118 79 -168 53
-48 109 -63 179 -47 186 42 244 261 101 383 -63 55 -137 69 -212 43z m200
-141 c13 -40 -6 -129 -25 -111 -2 3 -14 -1 -26 -9 -49 -35 -116 -3 -116 54 0
16 -2 35 -3 43 -2 7 -2 9 1 5 2 -5 16 3 31 17 15 14 40 26 58 28 22 1 29 6 25
17 -4 11 2 9 21 -5 15 -10 30 -28 34 -39z m-137 21 c0 -3 -4 -8 -10 -11 -5 -3
-10 -1 -10 4 0 6 5 11 10 11 6 0 10 -2 10 -4z m-88 -80 c1 -32 8 -41 30 -37 4
0 5 -5 2 -12 -7 -19 41 -59 70 -59 14 0 42 12 61 26 20 16 35 22 35 15 0 -7 7
-4 16 7 14 18 15 18 8 -6 -9 -34 -35 -62 -51 -55 -8 2 -11 1 -8 -4 18 -29
-109 -32 -134 -3 -32 36 -41 63 -41 119 0 61 10 69 12 9z m45 -8 c-3 -8 -6 -5
-6 6 -1 11 2 17 5 13 3 -3 4 -12 1 -19z m17 -54 c3 -8 2 -12 -4 -9 -6 3 -10
10 -10 16 0 14 7 11 14 -7z"/>
<path d="M4285 9070 c3 -5 -1 -10 -9 -10 -18 0 -21 -23 -6 -51 12 -21 40 -25
58 -7 17 17 15 42 -6 61 -20 18 -47 23 -37 7z"/>
<path d="M5525 9160 c-4 -7 -3 -16 3 -22 14 -14 45 -2 40 15 -6 16 -34 21 -43
7z"/>
<path d="M3100 9005 c-100 -32 -160 -116 -160 -228 0 -148 109 -257 334 -332
79 -27 166 -33 166 -13 0 6 -9 59 -19 117 -11 58 -24 151 -29 207 -11 115 -32
166 -88 212 -34 29 -101 53 -141 51 -10 0 -38 -7 -63 -14z m149 -84 c43 -30
61 -65 71 -131 15 -109 32 -272 28 -275 -2 -2 -21 3 -43 10 -22 7 -65 20 -95
29 -30 8 -68 26 -85 40 l-30 24 25 22 25 21 -32 -5 c-61 -10 -110 57 -100 139
5 47 45 118 62 111 6 -2 26 7 45 19 40 26 89 24 129 -4z"/>
<path d="M6969 8923 c-12 -21 -74 -115 -136 -210 -62 -95 -113 -175 -113 -177
0 -7 370 -253 386 -258 14 -4 293 410 282 416 -2 1 -21 16 -43 33 -57 43 -322
222 -339 229 -8 3 -22 -9 -37 -33z m148 -179 c43 -31 84 -59 91 -61 6 -3 12
-11 12 -19 0 -24 -92 -154 -104 -147 -54 31 -186 127 -186 136 0 14 91 147
101 147 4 0 43 -25 86 -56z m-111 -210 c83 -58 93 -68 84 -85 -6 -10 -14 -19
-19 -19 -10 0 -178 118 -186 131 -9 13 1 39 15 39 6 0 54 -30 106 -66z"/>
<path d="M4870 8886 c-395 -54 -825 -189 -1114 -348 -219 -121 -467 -300 -625
-452 l-73 -71 6 70 c4 39 9 93 12 122 6 49 5 52 -17 57 -23 5 -617 68 -770 82
l-76 6 -7 -48 c-4 -27 -18 -143 -31 -259 -14 -115 -31 -266 -39 -335 -9 -68
-14 -126 -12 -128 2 -2 70 -10 150 -18 80 -8 198 -23 262 -34 64 -11 120 -20
125 -20 16 0 10 -14 -32 -84 -34 -56 -39 -72 -31 -90 22 -46 78 -527 65 -563
-3 -7 -10 -13 -17 -13 -9 0 -15 21 -19 59 -3 32 -18 156 -33 275 l-28 216 -96
21 c-52 11 -102 23 -110 27 -23 8 -117 3 -206 -13 -168 -31 -312 -96 -490
-224 l-101 -72 38 -182 c21 -100 46 -221 55 -268 l16 -87 42 5 c41 5 91 25
303 122 123 56 237 88 352 98 111 9 88 -13 -49 -48 -62 -16 -118 -33 -123 -38
-11 -11 -77 -275 -77 -308 0 -22 3 -23 74 -23 l73 0 7 -37 c8 -50 8 -567 0
-627 -5 -36 -11 -46 -25 -46 -18 0 -19 15 -19 333 l0 334 -187 6 c-299 10
-361 25 -437 103 l-54 56 -16 -59 c-45 -166 -102 -337 -137 -412 -21 -46 -39
-87 -39 -92 0 -7 156 -45 210 -51 29 -3 27 3 29 -128 l1 -100 255 0 255 0 0
-39 c0 -40 0 -40 105 -103 244 -146 387 -243 508 -343 l127 -106 38 31 c21 17
74 46 117 65 70 30 81 38 94 72 44 107 122 180 228 213 75 23 132 25 187 5 37
-13 39 -12 80 19 83 63 210 102 297 91 42 -6 51 -3 105 34 109 75 245 89 350
36 l46 -23 86 52 c121 73 206 112 343 157 289 95 652 115 957 53 102 -20 290
-78 376 -116 l70 -30 24 28 c32 40 44 73 37 104 -7 32 -41 66 -70 72 -16 3
-20 11 -18 42 3 53 -18 89 -81 135 -44 33 -55 47 -65 85 -10 39 -8 54 10 105
23 67 19 84 -27 120 -33 26 -90 27 -138 4 -26 -12 -42 -31 -60 -68 -13 -29
-37 -62 -52 -74 -32 -25 -90 -28 -122 -5 -20 14 -22 22 -20 99 3 80 2 85 -26
114 -51 53 -136 31 -151 -38 -8 -38 -30 -46 -55 -21 -32 32 -25 67 19 109 29
28 43 52 56 100 21 73 75 152 125 180 19 11 58 25 85 32 69 17 95 36 95 68 0
46 -14 56 -77 56 -56 0 -58 1 -61 29 -2 19 4 36 20 54 13 14 17 22 9 17 -11
-6 -13 -4 -8 8 16 42 -86 -11 -120 -62 -12 -18 -41 -53 -64 -78 -39 -43 -42
-44 -60 -27 -10 9 -16 21 -13 25 3 5 -2 6 -12 2 -13 -5 -15 -2 -10 14 4 11 2
31 -3 44 -10 24 -10 23 -11 -6 -2 -29 -2 -29 -9 -5 -5 17 -9 21 -15 12 -4 -7
-4 -22 -1 -35 7 -22 7 -22 -10 -2 -16 19 -16 18 -11 -20 4 -29 3 -34 -4 -20
-5 11 -9 39 -9 62 -1 23 -5 45 -11 48 -6 3 -1 15 11 28 77 80 76 152 -1 105
-40 -24 -64 -51 -91 -101 -18 -35 -66 -67 -99 -67 -37 0 27 108 97 165 32 27
28 59 -8 63 -20 2 -47 -14 -114 -67 -85 -69 -125 -87 -125 -56 0 8 6 19 13 24
49 39 91 80 86 86 -17 16 -277 -219 -390 -355 -85 -102 -216 -307 -260 -409
-25 -58 -39 -58 -39 1 0 29 16 71 56 152 70 137 131 228 246 359 315 362 713
581 1238 679 136 25 433 35 595 19 328 -32 625 -142 930 -345 247 -165 434
-368 582 -632 84 -148 162 -382 178 -534 6 -54 6 -54 -28 40 -44 120 -106 261
-164 370 -43 82 -151 250 -160 250 -2 0 -1 -6 3 -12 4 -7 -12 6 -35 30 -22 24
-45 41 -50 38 -5 -3 -11 -19 -14 -35 -9 -43 -30 -44 -94 -5 -67 40 -154 70
-178 61 -27 -11 -13 -41 25 -53 29 -10 36 -18 45 -53 7 -30 26 -58 63 -95 44
-44 54 -60 55 -89 1 -45 -1 -47 -52 -54 -92 -12 -77 -71 44 -173 35 -30 95
-145 95 -183 0 -37 -47 -80 -80 -72 -75 16 -93 17 -116 5 -37 -20 -33 -68 11
-120 19 -23 35 -45 35 -50 0 -20 -32 -32 -66 -25 -44 8 -137 95 -175 165 -44
80 -106 80 -123 1 -9 -40 -6 -49 38 -133 51 -99 54 -131 13 -168 -48 -46 -85
-19 -208 152 -9 13 -32 30 -50 39 -19 9 -46 22 -61 29 -16 7 -28 18 -28 24 0
20 -34 41 -60 38 -20 -2 -22 -1 -10 7 12 9 9 11 -13 11 -28 0 -82 24 -102 46
-69 73 -206 57 -221 -25 -9 -48 20 -97 80 -137 56 -37 75 -61 76 -91 0 -26
-12 -30 -30 -8 -14 17 -62 20 -91 5 -22 -12 -44 -52 -53 -98 -4 -26 2 -51 25
-104 l31 -70 -17 -45 -17 -45 38 -31 c128 -104 275 -271 356 -405 134 -222
209 -447 238 -718 12 -110 13 -111 37 -106 16 3 36 23 58 57 18 30 54 68 78
87 43 33 44 34 55 117 24 180 141 340 322 444 76 44 221 86 333 99 l105 11 12
66 c14 73 41 145 68 175 9 10 35 27 57 37 99 46 226 2 255 -87 9 -26 17 -34
36 -34 57 0 128 -45 165 -105 l19 -30 0 31 c0 87 -78 184 -147 184 -10 0 -36
20 -56 45 -53 63 -106 89 -187 89 -36 0 -76 -6 -88 -13 -13 -7 -25 -11 -27 -9
-1 2 1 28 6 58 4 30 11 127 15 214 l7 159 28 -59 c16 -32 49 -81 75 -108 46
-48 46 -49 41 -102 -3 -30 -2 -54 3 -54 5 0 21 11 37 24 22 19 45 25 105 31
l77 7 54 -51 c30 -28 57 -51 60 -51 4 0 7 15 7 33 1 66 18 108 65 158 83 89
110 187 81 299 -29 111 -95 190 -196 231 -44 18 -172 18 -223 0 -50 -17 -134
-85 -160 -129 l-22 -37 -12 65 c-56 312 -170 580 -359 843 l-63 87 129 0 128
0 100 143 c185 266 527 782 527 796 0 8 -101 86 -224 175 l-224 161 -1 56 c-2
146 -147 238 -285 183 l-40 -16 -83 58 c-46 32 -102 73 -126 90 l-43 33 -63
-92 c-34 -51 -154 -227 -267 -392 -112 -165 -236 -347 -274 -403 l-70 -104 26
-21 c14 -12 65 -53 113 -90 138 -108 101 -97 -94 28 -122 78 -121 56 -15 215
51 77 104 158 117 181 l23 41 -70 64 c-71 65 -398 316 -511 392 -144 96 -423
225 -639 295 -125 40 -291 78 -445 102 -142 23 -597 29 -730 11z m237 -151 c9
-26 -5 -30 -105 -30 -83 0 -97 2 -100 17 -4 19 20 24 131 26 53 2 69 -1 74
-13z m396 -21 c13 -41 27 -55 67 -72 l35 -15 -40 -17 c-37 -16 -54 -36 -69
-82 -9 -28 -22 -21 -39 22 -11 28 -26 44 -51 57 -20 9 -36 19 -36 22 0 3 15
13 33 21 21 10 39 30 52 57 23 48 35 50 48 7z m-803 7 c0 -6 15 -11 33 -13
l32 -4 -26 -13 c-15 -7 -32 -23 -37 -35 -10 -19 -11 -19 -11 -2 -1 16 -7 18
-57 11 -31 -4 -75 -13 -97 -21 -22 -8 -42 -12 -45 -9 -5 5 5 9 108 45 36 13
69 29 75 37 11 15 25 17 25 4z m1100 -27 c0 -2 -11 -4 -25 -4 -14 0 -25 4 -25
9 0 4 11 6 25 3 14 -2 25 -6 25 -8z m179 -40 c86 -29 123 -47 140 -68 17 -20
12 -20 -41 3 -24 10 -86 32 -138 50 -52 17 -101 34 -108 36 -7 3 -11 9 -8 14
7 11 45 2 155 -35z m-1707 -114 c29 -11 67 -31 83 -45 l30 -24 -55 21 c-43 17
-77 22 -155 22 -94 1 -105 -1 -166 -31 -113 -56 -204 -178 -217 -289 -3 -26
-9 -41 -15 -37 -16 10 1 121 29 184 28 62 104 143 165 174 93 49 212 59 301
25z m857 -74 c19 -20 22 -31 16 -63 -5 -32 -2 -42 15 -58 12 -11 38 -42 58
-70 60 -85 83 -105 117 -105 70 0 98 -58 50 -105 -27 -28 -36 -30 -80 -14 -29
11 -36 8 -118 -47 -77 -53 -86 -62 -81 -85 3 -17 -2 -34 -16 -52 -46 -58 -138
-17 -125 55 6 32 2 40 -45 94 -28 32 -63 80 -77 106 -20 36 -32 48 -49 48 -64
0 -100 49 -70 94 21 32 49 40 82 23 26 -13 31 -12 107 34 44 27 84 49 89 49 5
0 8 18 6 40 -4 75 71 109 121 56z m-866 -21 c50 -21 114 -80 138 -128 11 -21
22 -62 25 -90 l5 -52 -18 42 c-35 83 -77 129 -149 164 -58 29 -77 33 -138 32
-77 -1 -136 -22 -193 -69 -39 -32 -43 -18 -8 25 76 89 226 123 338 76z m335
-3 c3 -17 -2 -22 -17 -22 -14 0 -21 6 -21 18 0 38 33 41 38 4z m3225 -10 c29
-21 178 -128 332 -237 366 -259 370 -262 384 -279 10 -11 6 -21 -20 -50 -17
-20 -38 -36 -47 -36 -11 0 -7 10 16 33 l32 33 -22 21 c-13 11 -54 42 -93 68
-38 27 -108 76 -155 110 -226 163 -471 336 -482 340 -8 2 -66 -76 -141 -188
-71 -106 -180 -268 -243 -361 -63 -92 -114 -172 -114 -176 0 -5 33 -32 74 -62
124 -89 403 -298 570 -427 85 -65 98 -72 112 -60 16 13 16 12 3 -9 -8 -12 -20
-20 -27 -17 -7 2 -83 58 -170 123 -86 65 -255 192 -374 282 -120 90 -218 164
-218 165 0 1 59 90 131 196 72 107 187 278 257 382 69 103 129 187 134 187 5
0 32 -17 61 -38z m-1833 -23 c70 -21 125 -82 154 -171 4 -13 16 -18 41 -18 24
0 35 -4 35 -15 0 -10 -11 -15 -35 -15 -31 0 -35 -3 -46 -41 -20 -64 -80 -125
-144 -145 -49 -16 -54 -20 -57 -48 -4 -38 -21 -37 -26 1 -4 30 -17 43 -46 43
-36 0 -105 50 -131 94 -14 24 -28 67 -32 95 -5 42 -1 59 22 106 15 31 40 66
57 78 38 28 140 66 153 56 6 -4 30 -13 55 -20z m2231 -18 c17 -17 29 -40 29
-55 0 -29 -11 -33 -30 -12 -6 8 -34 29 -61 46 -54 36 -55 50 -3 50 26 0 44 -8
65 -29z m-4052 -2 c28 -6 53 -14 56 -19 3 -5 -4 -24 -15 -42 -26 -43 -25 -48
10 -88 17 -18 30 -37 30 -41 0 -16 -19 -19 -33 -4 -21 21 -25 19 -19 -10 4
-21 8 -24 26 -19 11 4 23 11 24 15 2 5 17 9 33 9 40 0 39 -32 -2 -73 -18 -17
-35 -43 -39 -57 -10 -39 -33 -35 -86 14 -43 39 -48 47 -37 64 10 17 8 23 -18
46 -40 36 -38 78 6 89 l20 5 -20 1 c-34 1 -49 -15 -70 -81 -17 -54 -24 -63
-46 -66 -19 -2 -36 6 -58 28 -17 17 -31 37 -31 44 0 7 16 33 35 58 20 25 34
52 33 59 -2 8 3 13 10 11 8 -1 11 2 7 7 -11 19 47 47 127 60 4 0 30 -4 57 -10z
m2424 -5 c38 -20 67 -44 67 -56 0 -12 -75 30 -97 54 -20 22 -11 23 30 2z
m-2953 -83 c0 -4 -44 -41 -97 -82 -110 -83 -231 -185 -315 -265 -56 -53 -78
-65 -78 -42 0 17 157 170 245 239 155 123 245 178 245 150z m-952 -66 c161
-17 295 -35 299 -39 24 -23 -41 -21 -339 12 -180 20 -329 34 -331 32 -4 -5
-44 -291 -68 -492 -8 -71 -15 -98 -25 -98 -8 0 -14 6 -14 13 0 30 41 392 55
487 8 58 15 110 15 117 0 13 -8 14 408 -32z m3786 13 c8 -14 7 -22 -7 -35 -20
-20 -49 -9 -55 22 -7 35 41 45 62 13z m1386 -97 c28 -24 33 -32 23 -42 -19
-20 -17 -23 40 -68 60 -46 83 -51 92 -21 8 26 13 25 54 -10 32 -27 33 -30 19
-51 -14 -22 -12 -24 46 -65 38 -26 65 -38 72 -33 7 5 21 -2 39 -20 l27 -30
-127 -182 c-70 -101 -130 -189 -132 -196 -7 -18 -19 -16 -53 9 -33 24 -38 43
-15 52 8 3 15 9 15 14 0 8 -112 92 -123 92 -2 0 -10 -13 -17 -30 -7 -16 -14
-30 -17 -30 -2 0 -20 12 -39 28 -37 29 -43 47 -19 56 8 3 15 11 15 18 0 14
-103 98 -120 98 -6 0 -16 -11 -22 -25 -14 -31 -25 -31 -65 3 l-32 27 135 200
c75 110 141 208 147 218 15 22 17 22 57 -12z m-5080 -11 c126 -12 176 -24 183
-44 3 -7 1 -58 -3 -112 -5 -55 -9 -111 -10 -126 0 -21 -10 -34 -41 -55 l-40
-27 -181 14 c-100 7 -188 13 -197 14 -10 1 -17 -9 -19 -25 -3 -25 0 -27 45
-33 39 -5 269 -25 296 -26 4 0 7 -9 7 -20 0 -17 -7 -20 -52 -20 -29 0 -120 5
-202 12 -110 9 -149 15 -153 26 -10 25 29 385 44 416 l15 29 96 -6 c54 -3 149
-11 212 -17z m4010 -22 c18 -22 18 -24 -3 -46 l-21 -22 -23 26 c-22 26 -22 28
-6 45 24 24 31 23 53 -3z m-260 -45 c0 -41 36 -106 70 -126 17 -10 49 -24 73
-31 25 -8 36 -15 27 -19 -137 -48 -155 -62 -165 -131 -4 -25 -11 -48 -15 -51
-4 -2 -14 22 -23 53 -19 70 -37 87 -117 116 l-61 22 55 17 c71 23 110 62 127
127 14 54 29 66 29 23z m550 -56 c47 -46 60 -67 42 -67 -4 0 -32 28 -62 61
-63 72 -53 75 20 6z m-3524 -103 c-11 -18 -24 -33 -27 -34 -3 0 -18 13 -33 29
l-29 30 24 29 24 29 31 -25 31 -25 -21 -33z m2143 72 c15 -18 3 -46 -20 -46
-13 0 -19 7 -19 23 0 37 18 48 39 23z m-1001 -94 c16 -16 17 -21 5 -39 -14
-21 -15 -21 -34 -2 -16 16 -17 22 -7 39 15 24 14 24 36 2z m779 -95 c-2 -33
-27 -36 -45 -6 -11 18 -11 24 3 40 14 15 20 16 30 5 7 -7 12 -25 12 -39z
m-1592 -1 c18 -19 20 -26 9 -30 -8 -3 -14 -12 -14 -21 0 -20 -6 -19 -29 4 -17
17 -18 24 -8 45 15 32 15 32 42 2z m3120 -6 c0 -8 -8 -16 -17 -18 -13 -2 -18
3 -18 18 0 15 5 20 18 18 9 -2 17 -10 17 -18z m-3645 -15 c0 -18 -5 -25 -20
-25 -15 0 -20 7 -20 25 0 18 5 25 20 25 15 0 20 -7 20 -25z m1240 5 c0 -24
-26 -38 -42 -22 -16 16 -2 42 22 42 13 0 20 -7 20 -20z m-397 -157 c-17 -27
-18 -27 -21 -5 -2 12 -10 22 -18 22 -20 0 -17 9 8 30 22 17 23 17 36 -1 11
-16 10 -23 -5 -46z m-538 22 c0 -28 -29 -25 -33 3 -3 19 0 23 15 20 10 -2 18
-12 18 -23z m-281 -44 c50 -32 235 -138 411 -236 176 -97 357 -198 403 -223
l83 -46 -73 -18 c-40 -10 -96 -25 -125 -33 l-51 -15 23 -58 c28 -70 174 -422
262 -632 36 -85 83 -198 106 -252 22 -53 37 -103 34 -111 -3 -9 -84 -34 -229
-70 -122 -31 -284 -73 -358 -93 -74 -20 -162 -42 -195 -49 -33 -8 -73 -19 -88
-24 -35 -14 -43 -9 -50 26 -3 16 -40 116 -82 223 -41 107 -105 272 -141 365
-36 94 -83 213 -104 265 -22 52 -46 112 -54 133 -8 20 -22 37 -31 37 -17 0
-136 -33 -177 -49 -16 -6 -28 -9 -28 -7 0 1 17 43 39 92 45 103 243 606 292
741 19 51 36 93 38 93 2 0 45 -26 95 -59z m1096 -54 c-125 -43 -182 -69 -279
-127 -59 -34 -61 -35 -61 -16 0 19 208 120 315 151 50 15 95 28 100 30 6 2 19
4 30 4 11 0 -36 -19 -105 -42z m610 -106 c0 -3 -4 -12 -9 -20 -8 -12 -12 -12
-25 -2 -12 10 -13 18 -5 33 8 15 13 17 25 7 8 -6 14 -14 14 -18z m-423 -133
l20 -23 -22 -32 -22 -32 -22 30 c-21 28 -21 30 -4 54 22 30 25 30 50 3z
m-1740 -29 c8 -8 8 -18 1 -35 -11 -24 -11 -24 -30 -4 -16 17 -17 23 -6 35 16
18 21 18 35 4z m-438 -59 c8 -14 56 -296 63 -365 l3 -30 -135 -7 c-159 -8
-279 -36 -418 -97 l-93 -41 -57 16 c-31 9 -65 24 -76 33 -10 9 -27 15 -37 13
-15 -3 -18 2 -16 20 1 16 -3 22 -13 20 -12 -3 -12 -1 -3 9 9 9 8 15 -3 26 -16
16 -19 49 -4 58 5 3 7 12 3 20 -3 9 0 21 6 28 8 10 6 19 -5 35 -14 20 -12 23
23 56 21 19 40 30 44 25 3 -5 11 2 19 15 12 23 80 62 138 80 12 4 19 12 16 18
-4 7 -2 8 5 4 17 -11 84 16 68 27 -8 6 -7 7 5 4 13 -5 204 36 214 45 1 2 57 3
124 3 98 0 123 -3 129 -15z m365 -371 c-73 -185 -104 -246 -104 -207 0 69 155
426 176 405 3 -2 -30 -92 -72 -198z m1716 174 c0 -14 -26 -53 -36 -53 -13 0
-29 35 -21 47 4 7 57 12 57 6z m-2883 -135 c-3 -8 -6 -5 -6 6 -1 11 2 17 5 13
3 -3 4 -12 1 -19z m3737 -65 c-13 -10 -20 -10 -23 -2 -4 14 19 30 33 22 5 -3
1 -12 -10 -20z m-63 -26 c-8 -8 -11 -3 -11 19 1 25 2 27 11 11 8 -14 8 -22 0
-30z m-30 0 c-10 -9 -11 -8 -5 6 3 10 9 15 12 12 3 -3 0 -11 -7 -18z m69 -11
c0 -3 -4 -8 -10 -11 -5 -3 -10 -1 -10 4 0 6 5 11 10 11 6 0 10 -2 10 -4z
m-2596 -411 c9 -45 49 -92 86 -100 36 -8 39 -21 7 -29 -42 -10 -76 -45 -87
-89 -19 -73 -21 -74 -41 -11 -20 65 -37 86 -83 101 l-30 9 45 25 c38 21 47 32
64 81 10 31 22 55 26 52 4 -2 10 -19 13 -39z m-261 -23 c-6 -2 -16 -15 -22
-30 -9 -26 -9 -26 -10 -4 -1 15 -9 26 -21 29 -20 5 -20 6 2 27 l23 22 20 -21
c13 -13 16 -21 8 -23z m-768 -116 c55 -8 130 -18 168 -21 37 -4 67 -11 67 -16
0 -18 -288 20 -359 47 -33 13 -33 14 -6 9 17 -2 75 -11 130 -19z m389 -194 c0
-92 -1 -216 -2 -276 l-2 -109 -227 6 c-124 3 -230 10 -236 16 -17 17 26 29
124 33 86 3 104 8 165 38 76 39 134 85 134 106 0 10 -13 14 -44 14 l-43 0 18
100 c12 66 26 110 41 131 16 23 19 33 11 36 -13 5 -18 54 -8 65 3 2 20 5 38 6
l32 1 -1 -167z m-391 76 c114 -12 117 -13 117 -36 0 -25 0 -25 -77 -18 -42 3
-105 11 -140 17 -58 10 -63 13 -63 36 0 21 3 24 23 19 12 -3 75 -11 140 -18z
m6892 -48 c3 -5 12 -10 18 -10 7 0 6 4 -3 10 -29 19 7 10 58 -15 29 -14 52
-31 52 -38 0 -7 9 -23 20 -35 12 -12 19 -22 16 -22 -2 0 7 -28 21 -62 30 -76
26 -124 -19 -194 -32 -51 -63 -78 -88 -79 -17 0 -45 23 -53 45 -4 10 -6 7 -6
-7 -2 -39 -66 -31 -147 18 -38 23 -73 47 -77 53 -18 25 0 111 36 174 33 58 37
78 9 50 -8 -8 -12 -9 -12 -1 0 6 6 14 13 16 9 4 8 8 -3 16 -12 8 -12 11 -1 11
10 0 11 3 2 14 -9 11 -9 16 0 22 7 4 9 3 5 -4 -7 -11 31 -28 41 -18 4 3 1 6
-5 6 -7 0 -12 5 -12 11 0 6 5 9 12 7 6 -2 21 6 34 19 24 24 78 32 89 13z
m-6915 -55 c58 -8 106 -15 108 -15 8 0 0 -39 -9 -42 -11 -4 -271 23 -278 28
-2 2 0 15 3 30 6 24 10 26 39 20 18 -4 79 -13 137 -21z m1257 -11 c8 -21 -13
-42 -28 -27 -13 13 -5 43 11 43 6 0 13 -7 17 -16z m-442 -89 c9 -31 24 -70 35
-85 20 -28 20 -29 1 -62 -11 -18 -27 -62 -35 -97 -16 -69 -26 -88 -26 -50 0
45 -29 131 -51 155 l-22 23 26 31 c16 19 31 54 38 91 6 33 13 58 16 56 2 -2
10 -30 18 -62z m478 -93 c-7 -7 -13 -18 -13 -24 0 -6 -10 0 -23 13 -21 22 -22
26 -7 45 l15 22 20 -22 c16 -17 18 -24 8 -34z m-221 -74 c-7 -27 -17 -30 -36
-9 -17 18 -17 20 1 38 16 16 20 17 29 4 6 -8 9 -23 6 -33z m303 -188 c12 20
20 9 20 -29 0 -34 -1 -37 -18 -27 -13 8 -20 8 -26 -3 -5 -8 -8 2 -7 27 0 30 4
38 12 31 8 -7 14 -6 19 1z m-331 -129 c5 -7 31 -23 58 -36 53 -25 53 -26 -4
-44 -44 -15 -75 -50 -84 -97 -3 -19 -9 -34 -13 -34 -4 0 -14 21 -22 47 -15 52
-62 93 -105 93 -38 0 -28 13 29 40 51 24 65 41 88 105 l11 30 17 -45 c9 -25
20 -51 25 -59z m4697 -649 c-8 -14 -173 -217 -189 -232 -3 -3 8 19 24 48 39
72 152 214 164 207 6 -4 7 -12 1 -23z"/>
<path d="M5067 8444 c-10 -10 -9 -52 2 -58 13 -8 33 20 29 40 -3 19 -20 28
-31 18z"/>
<path d="M5025 8343 c-26 -13 -132 -80 -145 -90 -6 -5 22 -23 36 -23 6 0 28
14 49 30 31 24 47 30 88 30 47 0 54 -3 94 -45 26 -28 43 -55 43 -70 0 -29 7
-33 43 -26 l28 6 -65 87 c-91 121 -111 133 -171 101z"/>
<path d="M4776 8253 c-14 -15 -5 -43 14 -43 13 0 20 7 20 19 0 19 -23 35 -34
24z"/>
<path d="M4986 8229 c-37 -29 -37 -90 0 -124 35 -33 110 -35 142 -5 31 29 29
80 -4 119 -21 26 -33 31 -69 31 -28 0 -51 -7 -69 -21z m104 -55 c6 -14 8 -30
4 -35 -5 -9 -74 -13 -74 -5 0 2 -3 11 -6 19 -7 18 22 47 47 47 12 0 23 -10 29
-26z"/>
<path d="M4860 8179 c0 -30 42 -96 104 -162 46 -50 58 -58 78 -52 34 11 147
80 188 114 l35 30 -33 1 c-23 0 -46 -10 -73 -32 -51 -41 -128 -49 -176 -19
-31 20 -73 85 -73 115 0 13 -20 26 -41 26 -5 0 -9 -9 -9 -21z"/>
<path d="M5313 8114 c-7 -18 11 -39 26 -30 17 11 13 46 -4 46 -9 0 -18 -7 -22
-16z"/>
<path d="M5016 7925 c-8 -22 4 -46 23 -43 20 4 27 38 9 49 -19 12 -25 11 -32
-6z"/>
<path d="M5832 8359 c-45 -23 -77 -59 -87 -102 l-7 -27 65 0 c36 0 72 -3 81
-6 14 -5 16 5 16 75 0 91 -2 93 -68 60z"/>
<path d="M5942 8304 l3 -79 84 -3 83 -3 -7 28 c-14 60 -74 117 -133 129 l-33
7 3 -79z"/>
<path d="M5740 8168 c0 -31 44 -94 79 -112 15 -8 40 -16 56 -18 l28 -3 0 75
-1 75 -81 3 c-79 3 -81 2 -81 -20z"/>
<path d="M6024 8183 l-71 -4 -7 -46 c-9 -70 -7 -103 7 -103 23 1 92 37 114 61
30 33 56 102 36 97 -5 -1 -40 -4 -79 -5z"/>
<path d="M7753 7926 c-24 -35 -43 -68 -43 -73 0 -9 91 -80 115 -90 8 -3 15 -1
15 4 0 5 18 34 40 63 22 29 40 57 40 60 0 7 -114 100 -122 100 -1 0 -22 -29
-45 -64z"/>
<path d="M7957 7770 l-45 -70 46 -33 c26 -19 52 -37 59 -41 15 -8 110 122 97
133 -33 28 -102 81 -106 81 -3 0 -26 -31 -51 -70z"/>
<path d="M2506 8102 c-3 -5 -8 -28 -12 -50 -5 -31 -3 -43 7 -46 18 -6 381 -38
384 -34 8 9 16 108 8 108 -4 0 -80 7 -168 15 -186 17 -212 18 -219 7z"/>
<path d="M1766 7004 c-5 -14 -4 -15 9 -4 17 14 19 20 6 20 -5 0 -12 -7 -15
-16z"/>
<path d="M1701 6844 c0 -11 3 -14 6 -6 3 7 2 16 -1 19 -3 4 -6 -2 -5 -13z"/>
<path d="M1928 5683 c34 -2 88 -2 120 0 31 2 3 3 -63 3 -66 0 -92 -1 -57 -3z"/>
<path d="M8660 6039 c0 -5 5 -7 10 -4 6 3 10 8 10 11 0 2 -4 4 -10 4 -5 0 -10
-5 -10 -11z"/>
<path d="M8710 6040 c-8 -5 -10 -10 -5 -10 6 0 17 5 25 10 8 5 11 10 5 10 -5
0 -17 -5 -25 -10z"/>
<path d="M8510 5996 c0 -2 7 -7 16 -10 8 -3 12 -2 9 4 -6 10 -25 14 -25 6z"/>
<path d="M8815 5840 c-3 -5 -1 -10 4 -10 6 0 11 5 11 10 0 6 -2 10 -4 10 -3 0
-8 -4 -11 -10z"/>
<path d="M3720 8850 c0 -15 5 -20 18 -18 9 2 17 10 17 18 0 8 -8 16 -17 18
-13 2 -18 -3 -18 -18z"/>
<path d="M6607 8824 c-14 -14 -7 -35 11 -32 9 2 17 10 17 17 0 16 -18 25 -28
15z"/>
<path d="M1764 7871 c-49 -22 -79 -61 -94 -123 -44 -175 178 -299 306 -171 41
41 54 70 54 124 0 71 -42 144 -102 175 -38 19 -115 17 -164 -5z m135 -54 c60
-30 83 -137 40 -183 -47 -50 -138 -49 -179 3 -14 18 -20 40 -20 75 0 43 4 54
34 84 37 37 80 44 125 21z"/>
<path d="M8524 7164 c-60 -59 23 -146 89 -94 33 26 36 71 7 100 -27 27 -66 25
-96 -6z"/>
<path d="M8494 6895 l-37 -46 -94 7 c-51 4 -93 4 -93 0 0 -4 16 -38 35 -76 19
-38 35 -77 35 -85 0 -9 -19 -43 -41 -77 -50 -73 -44 -80 57 -71 l71 6 43 -52
c24 -28 47 -51 52 -51 5 0 18 20 29 45 l20 46 60 -7 c32 -4 59 -4 59 -2 0 3
-9 26 -21 52 -11 26 -18 55 -14 65 3 10 30 41 59 69 l53 50 -66 17 c-75 19
-107 43 -116 89 -12 58 -16 66 -35 66 -10 0 -35 -20 -56 -45z m84 -127 c9 -12
30 -18 56 -18 l41 -1 -44 -38 c-45 -40 -48 -55 -26 -113 9 -23 -12 -24 -37 -2
-23 21 -43 6 -52 -38 l-6 -31 -23 34 c-21 31 -27 34 -80 37 l-58 3 23 32 c29
40 28 90 -2 141 l-23 38 32 -7 c85 -18 131 -2 147 53 7 25 8 24 22 -23 8 -27
21 -58 30 -67z"/>
<path d="M8460 6777 c-34 -12 -35 -13 -38 -75 -3 -59 -2 -63 23 -72 45 -17 75
-11 105 19 33 32 33 67 1 111 -21 29 -43 34 -91 17z"/>
<path d="M8483 6303 c3 -10 8 -30 11 -45 10 -44 21 -32 18 17 -3 31 -8 45 -19
45 -9 0 -13 -7 -10 -17z"/>
<path d="M5125 5794 c-325 -50 -582 -165 -842 -377 -84 -68 -103 -78 -103 -53
0 15 144 146 160 146 6 0 10 4 10 10 0 18 -111 43 -170 37 -69 -6 -149 -39
-185 -77 -26 -27 -31 -29 -90 -23 -101 9 -217 -27 -305 -97 -37 -29 -37 -29
-86 -14 -124 39 -272 -19 -346 -135 -45 -72 -41 -77 57 -85 52 -4 111 -16 151
-31 121 -46 242 -149 279 -239 29 -69 -8 -79 -44 -11 -82 154 -259 245 -454
232 -104 -7 -135 -16 -227 -71 l-74 -45 -43 32 c-23 18 -90 70 -150 118 -145
115 -233 173 -412 273 -218 121 -334 147 -489 111 -306 -72 -523 -411 -539
-840 -4 -109 -2 -159 12 -225 41 -204 163 -378 352 -503 98 -64 183 -105 455
-217 132 -54 245 -103 250 -108 6 -6 -25 -12 -84 -17 -347 -26 -561 -169 -622
-416 -45 -185 5 -370 135 -494 85 -81 152 -110 259 -110 75 0 91 3 132 27 52
31 102 87 117 131 l10 28 -29 -24 c-33 -28 -94 -42 -139 -32 -48 10 -107 59
-131 110 -17 36 -21 58 -18 104 7 93 62 149 163 165 76 13 275 -34 420 -99
l59 -27 -59 -51 c-168 -144 -285 -323 -343 -522 -69 -236 -49 -521 52 -740
189 -410 689 -770 1186 -856 270 -46 581 -14 606 63 8 26 1 33 -79 80 -411
238 -629 504 -630 768 -1 156 68 264 218 342 98 51 190 74 410 103 105 14 217
33 250 42 61 16 222 89 261 118 l21 16 6 -203 c6 -229 21 -331 73 -487 66
-198 165 -364 298 -497 130 -129 269 -212 431 -255 112 -30 299 -30 408 -1
227 61 405 234 448 432 33 153 -32 397 -99 376 -17 -6 -22 -15 -22 -44 0 -63
-28 -169 -55 -217 -60 -101 -162 -153 -281 -142 -224 21 -386 268 -387 587 0
155 31 281 115 475 43 98 138 275 147 275 3 0 19 -31 36 -68 90 -203 314 -461
518 -596 142 -94 252 -138 507 -201 171 -42 257 -81 322 -146 112 -112 96
-290 -32 -361 -53 -29 -140 -21 -180 17 -57 55 -64 147 -15 219 29 43 25 45
-20 10 -69 -52 -100 -155 -74 -249 17 -61 102 -140 175 -161 145 -42 338 34
428 170 124 187 112 443 -29 641 -92 129 -187 200 -412 307 -70 33 -154 81
-186 106 -78 62 -173 180 -213 268 -33 70 -80 222 -71 230 2 2 34 -31 71 -75
192 -228 459 -428 740 -554 334 -150 582 -203 896 -194 205 6 284 22 429 92
77 37 108 60 171 123 122 123 177 240 187 397 9 152 -31 267 -127 365 -125
128 -325 164 -478 86 l-47 -24 40 -7 c133 -22 227 -68 278 -137 92 -124 41
-294 -111 -370 -41 -20 -62 -23 -157 -22 -115 0 -169 11 -320 64 -157 54 -368
172 -498 279 -120 97 -450 451 -436 466 2 2 49 -10 104 -26 225 -66 406 -90
672 -89 532 0 908 156 1146 475 119 158 169 308 169 505 0 107 -3 138 -26 215
-43 143 -97 235 -201 341 -105 107 -190 160 -323 203 -310 101 -655 41 -848
-147 -106 -104 -155 -204 -169 -348 -7 -67 -8 -70 -48 -94 -38 -24 -117 -128
-117 -155 0 -7 -22 -15 -54 -19 -30 -3 -60 -8 -68 -11 -10 -4 -13 17 -14 102
-4 317 -130 656 -344 921 -284 354 -722 590 -1192 641 -132 15 -383 12 -493
-5z m426 -105 c479 -49 881 -250 1163 -584 69 -81 150 -203 196 -294 47 -93
107 -283 125 -391 18 -114 20 -329 3 -419 l-13 -66 -6 160 c-17 398 -144 730
-386 1008 -67 76 -213 211 -220 203 -5 -5 39 -100 82 -173 23 -41 31 -61 21
-57 -15 6 -20 18 -17 37 1 5 -3 6 -8 2 -6 -3 -43 19 -83 50 -40 30 -76 55 -80
55 -4 0 6 -19 23 -43 31 -44 79 -189 79 -238 0 -37 -9 -59 -25 -59 -7 0 -57
48 -112 106 -192 209 -339 304 -548 356 -66 17 -102 19 -210 15 -150 -5 -216
-21 -332 -78 -109 -54 -192 -117 -343 -262 -173 -165 -334 -277 -434 -301 -36
-9 -66 16 -66 54 0 33 54 139 95 189 18 21 18 23 3 18 -23 -8 -23 -3 -1 19 12
12 13 16 4 13 -26 -9 -206 -183 -261 -251 -29 -38 -56 -68 -59 -68 -13 0 -40
61 -35 78 4 9 -7 -2 -22 -24 -25 -36 -64 -113 -113 -224 -10 -21 -10 -17 -6
28 9 79 41 174 78 229 31 43 52 63 141 128 36 26 27 55 -18 55 -33 0 -62 -16
-109 -59 l-29 -26 26 60 c70 160 270 388 439 499 311 206 677 294 1058 255z
m-3606 -305 c33 -8 79 -26 101 -39 23 -13 44 -22 46 -19 8 7 153 -52 237 -97
79 -42 248 -160 346 -242 33 -27 134 -118 225 -202 199 -184 222 -204 374
-317 65 -48 116 -88 113 -88 -24 0 -178 94 -243 149 -17 14 -67 54 -112 89
-44 34 -144 121 -222 193 -79 72 -146 126 -152 123 -6 -4 -8 -3 -5 3 8 13 -55
72 -190 177 -103 80 -173 115 -173 87 0 -6 11 -11 25 -11 50 0 79 -55 55 -101
-16 -29 -46 -23 -129 27 -104 62 -108 64 -160 79 -121 35 -167 27 -237 -42
l-39 -38 34 -5 c31 -5 38 -13 84 -95 65 -119 130 -204 219 -291 103 -100 183
-163 282 -223 410 -248 967 -387 1466 -367 158 7 190 13 350 67 94 32 117 35
143 15 24 -19 21 -26 -10 -27 l-28 -2 27 -4 c23 -4 27 -8 25 -37 -1 -18 -14
-51 -29 -73 -31 -47 -94 -108 -111 -108 -7 0 -17 -9 -23 -20 -6 -13 -19 -19
-35 -18 -13 1 -18 -1 -11 -4 48 -20 -217 -128 -388 -159 -116 -20 -321 -28
-395 -15 -33 6 -89 13 -125 16 -35 3 -83 12 -105 19 -22 8 -64 17 -92 21 -29
4 -53 11 -53 16 0 5 -18 9 -41 9 -24 0 -38 4 -34 10 4 6 -6 10 -24 10 -16 0
-34 6 -38 13 -12 19 -50 37 -78 37 -14 0 -28 7 -32 16 -5 13 -7 13 -14 2 -6
-9 -11 -10 -16 -2 -5 6 -19 11 -33 10 -34 0 -102 15 -96 21 13 14 89 14 98 2
6 -10 8 -7 6 10 -2 13 3 26 10 28 7 3 12 -4 12 -16 0 -12 6 -21 15 -21 12 0
13 4 5 19 -16 30 -11 38 8 15 18 -22 78 -47 93 -39 4 3 13 -4 19 -15 7 -12 18
-19 25 -16 8 3 17 1 20 -4 7 -11 55 -13 79 -4 9 3 16 16 16 28 0 18 6 21 40
22 30 1 41 -3 45 -17 4 -11 11 -19 16 -19 6 0 7 5 3 12 -5 8 -3 8 7 2 8 -5 46
-10 84 -11 88 -3 131 -11 146 -29 6 -8 25 -14 41 -14 18 0 27 -4 22 -11 -3 -6
7 -24 22 -41 l29 -30 -25 7 c-24 7 -24 7 -5 -9 11 -8 26 -16 33 -16 7 0 11 -4
8 -9 -3 -4 30 -8 74 -8 44 1 80 5 80 10 0 5 5 5 13 -1 13 -11 77 -4 77 8 0 5
-8 10 -17 12 -10 2 4 5 31 5 27 1 52 7 56 13 6 10 15 10 40 1 18 -6 38 -11 44
-10 6 0 -7 7 -29 15 -36 13 -56 13 -107 -2 -27 -8 -22 11 12 49 37 43 38 66 4
101 -15 14 -24 26 -20 26 4 0 0 10 -9 23 -12 17 -26 22 -63 23 -26 1 -76 4
-112 8 -36 3 -96 8 -135 11 -175 13 -649 156 -842 254 -33 17 -64 31 -68 31
-4 0 -39 21 -77 46 -144 95 -305 187 -356 205 -29 10 -50 14 -46 8 3 -5 0 -16
-6 -24 -10 -12 -7 -17 14 -26 14 -7 26 -16 26 -21 0 -5 4 -7 9 -3 17 10 24
-36 8 -52 -12 -13 -20 -13 -49 -3 -47 17 -84 7 -92 -25 -21 -81 92 -135 314
-150 52 -4 99 -10 104 -15 10 -10 10 -75 1 -90 -9 -14 -69 -12 -83 2 -7 7 -12
22 -12 35 0 13 -5 23 -11 23 -18 0 -3 -66 21 -92 28 -30 98 -32 129 -4 18 16
21 17 21 3 0 -9 -4 -18 -10 -22 -10 -6 19 -40 41 -47 14 -5 23 -74 10 -82 -20
-13 -205 73 -387 179 -325 190 -550 479 -571 738 -5 62 -4 67 12 61 15 -6 17
-2 10 33 -4 24 -1 58 6 82 13 44 56 90 79 84 9 -3 8 0 -2 7 -10 6 -18 21 -17
33 0 21 1 21 9 2 7 -14 8 -9 4 18 -11 65 44 114 161 143 68 17 91 17 160 -2z
m2063 -59 c20 -9 53 -27 74 -41 l36 -25 -36 -53 -36 -52 -33 33 c-32 32 -101
75 -89 55 10 -16 -19 -32 -55 -31 -41 1 -104 -14 -124 -31 -11 -9 -15 -9 -15
-1 0 6 4 11 9 11 5 0 12 8 16 17 4 13 -2 11 -22 -8 -16 -15 -42 -27 -63 -28
-60 -5 -69 -7 -77 -16 -5 -4 -1 -5 7 -1 8 4 4 -2 -10 -13 -49 -41 -55 -20 -7
26 31 30 78 50 105 45 7 -2 17 10 23 27 9 26 46 58 104 90 30 16 150 13 193
-4z m-54 -104 c3 -5 -3 -11 -13 -14 -14 -3 -18 -1 -14 9 6 16 19 18 27 5z
m-21 -240 c6 -6 1 -31 -13 -66 -18 -45 -25 -53 -34 -41 -29 39 -150 59 -212
36 -15 -6 -29 -8 -33 -5 -20 21 84 85 153 95 45 6 125 -5 139 -19z m1588 0
c23 -24 29 -38 29 -75 0 -101 -111 -145 -187 -74 -13 12 -23 30 -23 40 0 11
-4 16 -10 13 -5 -3 -10 0 -11 7 0 10 -2 10 -6 0 -2 -6 -10 -9 -15 -6 -7 4 -8
2 -4 -5 4 -6 12 -9 17 -6 5 4 9 -1 9 -10 0 -11 -5 -15 -14 -12 -11 5 -13 0 -6
-24 6 -20 5 -27 -2 -23 -7 4 -8 2 -4 -4 4 -7 13 -12 21 -12 9 0 15 -22 20 -72
14 -139 74 -223 184 -255 138 -40 303 36 342 157 7 19 16 40 21 46 5 7 11 40
14 75 5 49 2 78 -13 122 -11 31 -17 57 -12 57 16 0 99 -104 124 -154 124 -254
-44 -566 -326 -605 -299 -41 -560 211 -512 493 21 122 96 244 152 249 11 1 23
9 26 18 8 26 50 60 92 74 54 20 61 19 94 -14z m-2174 -23 c60 -22 140 -81 174
-129 12 -17 32 -56 45 -86 12 -30 25 -50 28 -44 11 17 123 13 161 -5 18 -8 43
-26 56 -40 22 -24 22 -25 10 -122 -6 -53 -14 -118 -17 -144 -6 -45 -8 -48 -35
-48 -38 0 -203 62 -288 108 -147 79 -296 192 -451 340 -118 113 -117 104 -20
153 100 51 229 58 337 17z m2467 -124 c36 -35 7 -104 -42 -104 -53 0 -78 52
-46 98 18 26 65 30 88 6z m2615 -25 c33 -12 41 -33 15 -43 -20 -8 -102 -6
-134 3 -28 8 -39 39 -18 53 15 10 91 3 137 -13z m-249 -18 c0 -26 -6 -31 -47
-46 -171 -60 -283 -145 -358 -270 -47 -79 -67 -150 -74 -265 l-6 -95 -19 35
c-24 44 -33 165 -17 243 40 190 208 353 426 412 81 22 95 20 95 -14z m450
-105 c0 -24 -26 -38 -40 -22 -6 9 -9 20 -5 26 9 15 45 12 45 -4z m37 -47 c-6
-10 -16 -19 -20 -19 -14 0 4 -41 31 -71 18 -21 31 -28 46 -23 17 5 19 4 8 -7
-11 -12 -18 -11 -42 3 -25 14 -30 15 -30 3 0 -8 3 -15 8 -15 4 0 8 -43 10 -96
4 -136 -25 -215 -110 -304 -66 -68 -94 -87 -139 -93 -52 -7 -85 -39 -95 -92
-4 -21 -12 -35 -21 -35 -8 0 -12 -4 -8 -10 8 -14 -30 -34 -120 -65 -107 -36
-117 -42 -113 -68 5 -36 -92 -69 -219 -75 -73 -3 -103 -1 -103 7 0 6 4 11 9
11 22 0 23 42 1 65 l-22 24 38 6 c245 39 468 134 596 253 77 72 115 136 143
245 14 54 32 114 40 134 8 19 15 55 15 79 0 24 5 44 10 44 6 0 10 -9 10 -21 0
-11 5 -17 10 -14 6 3 10 0 10 -7 0 -10 3 -9 11 2 9 12 10 11 6 -8 -3 -12 -1
-20 3 -17 5 3 11 -3 13 -12 3 -12 5 -9 6 8 1 31 -18 91 -28 85 -11 -7 -28 7
-35 32 -6 16 -3 22 8 22 10 0 13 -6 9 -17 -4 -11 -3 -14 6 -9 7 4 9 16 5 28
-4 14 1 24 16 35 13 9 19 21 15 31 -5 13 -2 13 14 -2 16 -15 18 -21 8 -37z
m33 -9 c0 -5 -4 -10 -10 -10 -5 0 -10 5 -10 10 0 6 5 10 10 10 6 0 10 -4 10
-10z m-419 -175 c48 -17 102 -64 125 -107 8 -15 14 -46 14 -70 -1 -166 -225
-320 -590 -405 -106 -25 -428 -24 -595 1 -66 10 -121 19 -123 21 -1 1 6 24 16
51 22 55 68 94 113 94 18 0 42 -12 64 -32 43 -37 54 -29 53 42 -2 69 18 115
69 160 25 22 49 40 52 40 3 0 15 -21 25 -48 23 -55 112 -147 174 -179 l42 -22
16 37 c9 20 25 60 36 87 64 162 177 288 294 330 52 19 161 19 215 0z m-5806
-297 c-7 -46 -11 -55 -22 -45 -6 7 16 87 24 87 2 0 1 -19 -2 -42z m97 20 c-8
-8 -8 -17 -1 -31 8 -13 8 -22 0 -30 -8 -8 -11 -4 -11 16 0 23 -4 27 -32 29
l-33 1 35 5 c33 5 34 5 10 12 -23 7 -22 8 10 9 26 1 31 -2 22 -11z m278 -2 c0
-8 -48 -12 -66 -6 -13 5 -5 8 24 8 23 0 42 -1 42 -2z m-210 -26 c0 -5 -4 -10
-10 -10 -5 0 -10 5 -10 10 0 6 5 10 10 10 6 0 10 -4 10 -10z m36 -52 c-3 -29
-6 -63 -6 -75 0 -14 -6 -23 -15 -23 -8 0 -15 -7 -15 -15 0 -18 -17 -20 -22 -3
-3 9 -12 9 -39 0 -31 -11 -32 -10 -15 3 11 8 32 15 48 15 27 0 28 2 28 53 0
67 9 97 28 97 12 0 14 -9 8 -52z m244 42 c0 -5 -5 -10 -11 -10 -5 0 -7 5 -4
10 3 6 8 10 11 10 2 0 4 -4 4 -10z m51 -11 c25 -13 16 -29 -17 -29 -17 0 -24
5 -24 20 0 22 12 25 41 9z m-351 -29 c0 -11 -7 -20 -15 -20 -15 0 -21 21 -8
33 12 13 23 7 23 -13z m261 -2 c1 -7 1 -22 0 -34 -1 -13 7 -24 24 -32 14 -6
25 -16 25 -21 0 -6 7 -8 15 -5 10 4 15 20 15 47 0 55 12 40 14 -17 1 -41 -1
-46 -20 -46 -12 0 -38 14 -59 30 -21 17 -43 30 -49 30 -6 0 -4 5 4 10 8 5 10
10 3 10 -6 0 -9 9 -6 20 6 22 32 28 34 8z m192 -1 c17 3 27 1 27 -6 0 -8 -18
-11 -54 -9 -37 2 -52 7 -49 15 3 8 12 9 27 3 12 -4 34 -6 49 -3z m-127 -32
c-1 -28 -14 -33 -23 -9 -4 12 9 32 23 34 1 0 1 -11 0 -25z m-203 3 c4 -10 8
-9 16 2 6 8 11 10 11 4 0 -6 -7 -17 -15 -24 -8 -7 -15 -21 -15 -32 0 -34 -17
-10 -18 27 -1 34 11 48 21 23z m972 -48 c3 -5 2 -10 -4 -10 -5 0 -13 5 -16 10
-3 6 -2 10 4 10 5 0 13 -4 16 -10z m-1171 -32 c-7 -11 -32 -10 -39 2 -3 6 4 9
19 8 13 -1 22 -6 20 -10z m576 3 c0 -6 -4 -12 -8 -15 -5 -3 -9 1 -9 9 0 8 4
15 9 15 4 0 8 -4 8 -9z m-100 -11 c0 -5 -8 -10 -17 -10 -15 0 -16 2 -3 10 19
12 20 12 20 0z m5440 -5 c0 -20 -50 -76 -61 -69 -5 3 -9 -1 -9 -8 0 -20 -20
13 -20 35 0 9 9 26 20 37 24 24 70 27 70 5z m-5320 -5 c0 -5 -5 -10 -11 -10
-5 0 -7 5 -4 10 3 6 8 10 11 10 2 0 4 -4 4 -10z m-535 -10 c8 -13 -5 -13 -25
0 -13 8 -13 10 2 10 9 0 20 -4 23 -10z m996 -19 c35 -35 37 -72 7 -101 -45
-41 -138 -11 -138 45 0 40 44 82 88 84 8 1 27 -12 43 -28z m-305 7 c5 -8 2 -9
-11 -5 -9 4 -24 2 -31 -4 -12 -10 -13 -9 -8 5 7 19 39 22 50 4z m-519 -54 c-3
-3 -12 -4 -19 -1 -8 3 -5 6 6 6 11 1 17 -2 13 -5z m68 -14 c3 -5 -1 -10 -10
-10 -9 0 -13 5 -10 10 3 6 8 10 10 10 2 0 7 -4 10 -10z m1733 3 c-20 -5 -25
-23 -6 -23 25 0 -4 -13 -34 -15 l-32 -2 28 24 c15 12 35 22 44 22 15 -1 15 -2
0 -6z m15 -208 c-3 -16 -2 -17 6 -5 18 26 19 6 6 -80 -18 -109 -26 -140 -59
-223 -55 -135 -139 -260 -250 -372 -98 -97 -154 -137 -243 -173 -66 -26 -74
-26 -298 -28 -269 -1 -294 -4 -485 -51 -227 -56 -300 -97 -300 -168 0 -44 25
-72 83 -93 l47 -18 -41 -30 c-175 -125 -264 -233 -303 -363 -51 -174 -14 -418
94 -618 22 -41 40 -77 40 -79 0 -9 -57 10 -115 39 -85 42 -217 136 -209 149 5
7 2 8 -5 3 -15 -9 -49 25 -43 43 3 10 7 10 19 0 8 -6 1 12 -16 41 -89 151
-146 368 -140 535 2 57 28 132 51 147 5 3 0 9 -11 12 -23 6 -89 -39 -138 -91
l-25 -27 7 40 c21 116 110 305 144 305 6 0 11 5 11 11 0 5 -4 7 -10 4 -6 -3
-7 1 -4 9 3 9 9 14 13 11 4 -2 15 14 25 35 10 22 24 40 32 40 8 0 12 5 9 10
-3 6 -1 10 5 10 6 0 8 5 5 10 -3 6 1 10 10 10 8 0 18 7 21 15 3 8 14 17 25 20
11 4 18 9 15 13 -6 12 31 44 39 33 11 -18 28 -12 22 8 -3 15 -1 18 11 14 11
-5 13 -3 7 7 -5 8 -4 11 3 6 6 -3 35 12 64 34 56 43 201 117 279 144 90 29
317 61 534 74 l100 7 -95 5 -95 5 156 18 c86 9 192 26 235 37 147 38 292 127
368 225 18 24 35 42 38 40 3 -3 5 1 6 7 1 7 15 63 32 123 20 73 29 96 28 70
-4 -67 10 -105 37 -105 18 0 23 -4 19 -15 -4 -10 0 -15 15 -15 12 0 21 6 21
13 0 8 3 8 9 -2 7 -11 16 -7 45 21 40 39 45 62 19 77 -15 8 -16 12 -5 23 10
10 14 10 21 0 6 -10 11 -10 21 3 11 13 15 13 21 3 7 -10 9 -10 9 0 0 6 7 12
15 12 9 0 15 9 15 24 0 14 5 28 10 31 6 3 11 39 11 78 l2 72 8 -75 c4 -41 5
-84 2 -95z m2562 124 c104 -13 243 -22 358 -24 160 -2 191 -5 205 -19 16 -15
15 -17 -5 -22 -12 -4 -25 -14 -28 -24 -9 -27 -82 -59 -153 -66 -54 -6 -66 -4
-85 13 -17 16 -51 24 -157 37 -188 23 -487 55 -535 57 l-40 2 45 8 c27 5 -18
6 -113 4 -87 -2 -155 0 -153 4 3 5 43 16 88 25 46 9 92 18 103 20 62 12 317 4
470 -15z m-3455 -13 c0 -11 -19 -15 -25 -6 -3 5 1 10 9 10 9 0 16 -2 16 -4z
m617 -173 c-3 -10 -5 -2 -5 17 0 19 2 27 5 18 2 -10 2 -26 0 -35z m639 -108
c-14 -37 -28 -151 -23 -191 3 -27 1 -41 -5 -38 -7 4 -8 -8 -4 -32 4 -22 2 -59
-3 -84 -5 -25 -14 -72 -20 -105 -7 -33 -17 -85 -24 -115 -12 -55 -12 -55 -18
-20 -5 28 -7 30 -8 9 0 -14 -6 -40 -12 -58 -9 -27 -16 -31 -45 -31 -30 0 -34
3 -34 28 0 15 25 110 55 212 52 174 95 335 95 358 0 20 31 82 41 82 6 0 9 -7
5 -15z m-2535 -15 c37 -5 79 -14 94 -20 28 -10 28 -11 9 -29 -17 -15 -46 -19
-214 -24 -133 -5 -196 -11 -201 -19 -4 -7 -23 -14 -41 -15 -42 -5 -188 -55
-188 -65 0 -5 -7 -8 -15 -8 -9 0 -27 -12 -42 -26 -14 -14 -28 -23 -31 -19 -3
3 14 23 39 44 24 22 55 49 69 61 14 12 0 5 -30 -16 -79 -54 -128 -102 -161
-159 -38 -66 -37 -35 1 42 66 132 205 220 398 253 67 11 236 11 313 0z m264
-67 c38 -14 79 -32 90 -40 19 -13 19 -13 -3 -13 -12 0 -54 9 -93 20 -40 11
-75 17 -79 15 -8 -5 -20 18 -20 36 0 15 32 10 105 -18z m-19 -51 c-10 -2 -22
0 -28 6 -6 6 0 7 19 4 21 -5 23 -7 9 -10z m2324 -182 c0 -5 -7 -7 -15 -4 -8 4
-15 8 -15 10 0 2 7 4 15 4 8 0 15 -4 15 -10z m-139 -337 c-12 -20 -14 -14 -5
12 4 9 9 14 11 11 3 -2 0 -13 -6 -23z m-16 -33 c-3 -5 0 -10 8 -10 18 0 51
-38 66 -77 20 -51 16 -170 -10 -243 -24 -72 -84 -180 -126 -231 l-28 -33 1
-165 c0 -118 5 -186 17 -236 9 -38 19 -81 22 -95 3 -14 -13 11 -35 55 -49 99
-79 212 -87 333 -7 114 6 165 49 183 15 6 31 16 34 21 4 6 -3 5 -14 -1 -39
-21 -62 -13 -79 26 -19 47 -12 136 22 269 36 141 68 194 117 194 15 0 28 5 28
10 0 6 5 10 11 10 5 0 7 -4 4 -10z m1989 -744 c96 -44 162 -90 180 -124 32
-64 -18 -71 -56 -7 -18 30 -47 57 -88 82 -72 44 -127 83 -117 83 3 0 40 -15
81 -34z m267 -218 c8 -15 8 -18 0 -14 -6 4 -16 16 -22 28 -8 15 -8 18 0 14 6
-4 16 -16 22 -28z m-4592 -223 c0 -5 -4 -3 -9 5 -5 8 -9 22 -9 30 0 16 17 -16
18 -35z"/>
<path d="M1717 4895 c-24 -24 -31 -59 -16 -87 16 -30 28 -38 61 -38 29 0 68
40 68 69 -1 48 -82 88 -113 56z"/>
<path d="M1840 4670 c-16 -16 -18 -24 -9 -47 16 -41 29 -53 60 -53 37 0 63 37
53 76 -4 16 -12 32 -18 36 -21 14 -66 8 -86 -12z"/>
<path d="M4328 4203 c7 -3 16 -2 19 1 4 3 -2 6 -13 5 -11 0 -14 -3 -6 -6z"/>
<path d="M4250 4181 c12 -9 13 -11 1 -11 -8 0 -12 -2 -10 -5 3 -2 18 0 35 4
16 5 21 10 12 10 -9 1 -25 4 -35 7 -15 5 -15 4 -3 -5z"/>
<path d="M4313 4175 c0 -8 4 -15 8 -15 4 0 5 -10 2 -22 -6 -24 -5 -24 15 3 10
13 8 19 -6 33 -16 14 -19 14 -19 1z"/>
<path d="M4042 4129 c-48 -10 -54 -22 -7 -14 22 4 42 9 44 11 10 9 -6 10 -37
3z"/>
<path d="M4156 4096 c4 -12 8 -41 9 -65 2 -23 8 -48 15 -55 9 -8 11 -7 10 4
-6 42 2 100 15 113 13 13 10 15 -21 19 -32 4 -35 2 -28 -16z"/>
<path d="M2455 4070 c-3 -5 1 -10 10 -10 9 0 13 5 10 10 -3 6 -8 10 -10 10 -2
0 -7 -4 -10 -10z"/>
<path d="M3498 4063 c7 -3 16 -2 19 1 4 3 -2 6 -13 5 -11 0 -14 -3 -6 -6z"/>
<path d="M4087 4046 c-10 -11 -26 -13 -51 -9 -32 5 -36 3 -36 -16 0 -18 6 -21
40 -21 22 0 40 5 40 10 0 6 18 10 40 10 41 0 53 13 23 24 -10 3 -23 8 -29 11
-7 3 -18 -1 -27 -9z"/>
<path d="M3813 3960 c-8 -11 -9 -21 -3 -25 8 -5 30 24 30 39 0 13 -16 5 -27
-14z"/>
<path d="M4000 3961 c0 -18 6 -21 40 -21 29 0 40 4 40 15 0 8 -8 15 -17 15
-10 0 -28 3 -40 6 -19 5 -23 2 -23 -15z"/>
<path d="M4107 3947 c3 -5 16 -7 29 -4 13 2 25 -1 28 -7 2 -6 5 -3 5 6 1 13
-7 16 -33 15 -19 -1 -32 -6 -29 -10z"/>
<path d="M3841 3884 c-1 -47 12 -57 56 -44 l28 8 -26 1 c-31 1 -45 16 -52 51
-3 17 -5 11 -6 -16z"/>
<path d="M3277 3901 c-16 -6 -16 -9 -3 -26 16 -23 29 -16 24 13 -2 14 -8 17
-21 13z"/>
<path d="M3040 3885 c0 -10 14 -17 40 -21 51 -8 53 -31 3 -37 -21 -2 -12 -3
20 -1 55 4 117 23 75 24 -9 0 -23 7 -32 15 -32 33 -106 47 -106 20z"/>
<path d="M2900 3880 c0 -6 7 -10 15 -10 8 0 15 2 15 4 0 2 -7 6 -15 10 -8 3
-15 1 -15 -4z"/>
<path d="M3018 3843 c7 -3 16 -2 19 1 4 3 -2 6 -13 5 -11 0 -14 -3 -6 -6z"/>
<path d="M3260 3832 c21 -5 17 -7 -20 -13 l-45 -7 44 2 c26 0 46 6 49 14 2 8
-6 12 -25 11 -27 -2 -27 -2 -3 -7z"/>
<path d="M3360 3814 c0 -14 5 -24 11 -22 6 2 10 7 10 11 -1 4 -1 14 -1 22 0 8
-4 15 -10 15 -5 0 -10 -12 -10 -26z"/>
<path d="M3768 3833 c7 -3 16 -2 19 1 4 3 -2 6 -13 5 -11 0 -14 -3 -6 -6z"/>
<path d="M3898 3823 c7 -3 16 -2 19 1 4 3 -2 6 -13 5 -11 0 -14 -3 -6 -6z"/>
<path d="M3948 3823 c7 -3 16 -2 19 1 4 3 -2 6 -13 5 -11 0 -14 -3 -6 -6z"/>
<path d="M3148 3813 c6 -2 18 -2 25 0 6 3 1 5 -13 5 -14 0 -19 -2 -12 -5z"/>
<path d="M5962 4760 c0 -19 2 -27 5 -17 2 9 2 25 0 35 -3 9 -5 1 -5 -18z"/>
<path d="M8600 4680 c0 -5 5 -10 11 -10 5 0 7 5 4 10 -3 6 -8 10 -11 10 -2 0
-4 -4 -4 -10z"/>
<path d="M4215 3261 c-29 -13 -75 -68 -75 -91 0 -28 35 -60 66 -60 38 0 104
68 104 107 0 16 -5 34 -12 41 -14 14 -53 15 -83 3z"/>
<path d="M3905 3150 c-11 -5 -40 -14 -63 -20 l-44 -11 29 -25 c31 -26 66 -30
126 -13 47 13 44 30 -8 45 -36 10 -38 12 -20 22 23 13 9 15 -20 2z"/>
<path d="M4130 3014 c0 -19 -4 -33 -9 -30 -5 3 -12 -1 -15 -10 -4 -10 -2 -13
6 -8 7 4 8 3 4 -4 -18 -30 -106 8 -106 46 0 15 -2 15 -10 2 -17 -26 -11 -51
19 -81 59 -58 161 -28 161 47 0 30 -24 74 -41 74 -5 0 -9 -16 -9 -36z"/>
<path d="M3552 2950 c-20 -32 -15 -77 10 -94 28 -20 51 -20 88 -1 39 20 41 62
3 96 -23 21 -25 22 -18 4 21 -52 0 -83 -47 -72 -29 8 -43 44 -26 64 6 8 9 15
7 18 -3 2 -10 -5 -17 -15z"/>
<path d="M2475 2644 c-9 -15 -12 -23 -6 -20 11 7 35 46 28 46 -3 0 -12 -12
-22 -26z"/>
<path d="M2683 2423 c-34 -6 -65 -52 -58 -83 8 -37 52 -72 78 -64 41 12 67 45
67 85 0 49 -32 72 -87 62z"/>
<path d="M4861 2744 c0 -11 3 -14 6 -6 3 7 2 16 -1 19 -3 4 -6 -2 -5 -13z"/>
<path d="M4861 2654 c0 -11 3 -14 6 -6 3 7 2 16 -1 19 -3 4 -6 -2 -5 -13z"/>
<path d="M1550 3640 c-23 -43 17 -83 60 -60 22 12 27 49 8 68 -19 19 -56 14
-68 -8z"/>
<path d="M8860 3279 c0 -24 23 -21 28 4 2 10 -3 17 -12 17 -10 0 -16 -9 -16
-21z"/>
<path d="M7480 2965 c0 -60 32 -95 87 -95 48 0 71 13 56 32 -6 7 -13 24 -15
38 -2 20 -9 25 -31 26 -31 1 -77 23 -77 36 0 4 -4 8 -10 8 -5 0 -10 -20 -10
-45z"/>
<path d="M7822 2821 c-8 -4 -12 -19 -10 -32 5 -36 55 -40 64 -5 3 14 3 30 -1
35 -7 13 -35 14 -53 2z"/>
<path d="M5652 2068 c-24 -31 -23 -57 2 -83 30 -30 55 -32 84 -5 23 21 30 64
12 75 -5 3 -10 -3 -10 -14 0 -12 -3 -21 -7 -22 -5 0 -18 -2 -30 -5 -17 -3 -24
2 -29 21 -3 13 -3 29 1 34 9 15 -10 14 -23 -1z"/>
<path d="M3795 1987 c-59 -24 -92 -46 -128 -86 -130 -144 -86 -377 88 -466 50
-26 70 -30 134 -30 126 1 220 59 273 170 50 107 30 253 -48 330 -64 65 -118
88 -208 92 -48 1 -93 -2 -111 -10z m237 -133 c10 -5 29 -25 43 -44 20 -27 25
-46 25 -92 0 -105 -44 -162 -138 -179 -111 -21 -202 60 -202 179 0 41 5 55 33
86 30 35 37 38 111 47 43 4 81 10 83 13 6 6 25 2 45 -10z"/>
<path d="M3996 1805 c4 -15 18 -38 31 -51 16 -16 23 -32 20 -45 -3 -10 -1 -17
4 -13 13 8 11 38 -3 52 -7 7 -17 26 -22 44 -14 40 -40 52 -30 13z"/>
<path d="M5515 1798 c-49 -26 -58 -69 -24 -112 50 -63 150 -1 119 75 -6 14
-23 31 -36 38 -30 13 -34 13 -59 -1z"/>
<path d="M4352 1384 c-24 -16 -29 -53 -12 -85 7 -13 21 -19 44 -19 59 0 87 59
46 100 -24 24 -48 25 -78 4z"/>
</g>
</svg>
